{
  "accessors": [
    {
      "bufferView": 2,
      "componentType": 5126,
      "count": 65532,
      "max": [
        16.730499267578125,
        23.408603668212891,
        22.708700180053711
      ],
      "min": [
        -18.612300872802734,
        -23.090795516967773,
        -7.5110921859741211
      ],
      "type": "VEC3"
    },
    {
      "bufferView": 2,
      "byteOffset": 786384,
      "componentType": 5126,
      "count": 65532,
      "max": [
        0.99994021654129028,
        0.9999808669090271,
        1
      ],
      "min": [
        -0.99997395277023315,
        -0.99988168478012085,
        -0.99860602617263794
      ],
      "type": "VEC3"
    },
    {
      "bufferView": 3,
      "componentType": 5126,
      "count": 65532,
      "max": [
        1,
        0.99999916553497314,
        0.99999940395355225,
        1
      ],
      "min": [
        -0.99999487400054932,
        -0.99995714426040649,
        -0.99999451637268066,
        1
      ],
      "type": "VEC4"
    },
    {
      "bufferView": 1,
      "componentType": 5126,
      "count": 65532,
      "max": [
        0.99730700254440308,
        0.9983450174331665
      ],
      "min": [
        0.0016469999682158232,
        0.0016469999682158232
      ],
      "type": "VEC2"
    },
    {
      "bufferView": 0,
      "componentType": 5125,
      "count": 297840,
      "max": [
        65531
      ],
      "min": [
        0
      ],
      "type": "SCALAR"
    },
    {
      "bufferView": 2,
      "byteOffset": 1572768,
      "componentType": 5126,
      "count": 65532,
      "max": [
        16.726200103759766,
        23.396703720092773,
        22.708700180053711
      ],
      "min": [
        -18.534599304199219,
        -23.063596725463867,
        -7.491642951965332
      ],
      "type": "VEC3"
    },
    {
      "bufferView": 2,
      "byteOffset": 2359152,
      "componentType": 5126,
      "count": 65532,
      "max": [
        0.99995017051696777,
        0.99984920024871826,
        1
      ],
      "min": [
        -0.99997073411941528,
        -0.99993473291397095,
        -0.99998283386230469
      ],
      "type": "VEC3"
    },
    {
      "bufferView": 3,
      "byteOffset": 1048512,
      "componentType": 5126,
      "count": 65532,
      "max": [
        1,
        0.9999467134475708,
        0.99999964237213135,
        1
      ],
      "min": [
        -0.99997782707214355,
        -0.99999231100082397,
        -0.99999940395355225,
        1
      ],
      "type": "VEC4"
    },
    {
      "bufferView": 1,
      "byteOffset": 524256,
      "componentType": 5126,
      "count": 65532,
      "max": [
        0.99737399816513062,
        0.99825501441955566
      ],
      "min": [
        0.0023189999628812075,
        0.0018830000190064311
      ],
      "type": "VEC2"
    },
    {
      "bufferView": 0,
      "byteOffset": 1191360,
      "componentType": 5125,
      "count": 282468,
      "max": [
        65531
      ],
      "min": [
        0
      ],
      "type": "SCALAR"
    },
    {
      "bufferView": 2,
      "byteOffset": 3145536,
      "componentType": 5126,
      "count": 65532,
      "max": [
        16.394800186157227,
        13.45259952545166,
        22.329000473022461
      ],
      "min": [
        -13.548199653625488,
        -20.269796371459961,
        -7.5195322036743164
      ],
      "type": "VEC3"
    },
    {
      "bufferView": 2,
      "byteOffset": 3931920,
      "componentType": 5126,
      "count": 65532,
      "max": [
        0.99995017051696777,
        0.99981528520584106,
        1
      ],
      "min": [
        -0.99997073411941528,
        -0.99996650218963623,
        -0.99980568885803223
      ],
      "type": "VEC3"
    },
    {
      "bufferView": 3,
      "byteOffset": 2097024,
      "componentType": 5126,
      "count": 65532,
      "max": [
        0.99999994039535522,
        0.99996334314346313,
        0.99999964237213135,
        1
      ],
      "min": [
        -0.99999487400054932,
        -0.99993085861206055,
        -0.99999940395355225,
        1
      ],
      "type": "VEC4"
    },
    {
      "bufferView": 1,
      "byteOffset": 1048512,
      "componentType": 5126,
      "count": 65532,
      "max": [
        0.99835300445556641,
        0.9983069896697998
      ],
      "min": [
        0.0017509999452158809,
        0.0016469999682158232
      ],
      "type": "VEC2"
    },
    {
      "bufferView": 0,
      "byteOffset": 2321232,
      "componentType": 5125,
      "count": 186162,
      "max": [
        65531
      ],
      "min": [
        0
      ],
      "type": "SCALAR"
    },
    {
      "bufferView": 2,
      "byteOffset": 4718304,
      "componentType": 5126,
      "count": 21478,
      "max": [
        16.729900360107422,
        23.420303344726562,
        21.906900405883789
      ],
      "min": [
        -18.606399536132812,
        -22.966596603393555,
        -7.561892032623291
      ],
      "type": "VEC3"
    },
    {
      "bufferView": 2,
      "byteOffset": 4976040,
      "componentType": 5126,
      "count": 21478,
      "max": [
        0.99978220462799072,
        0.99996656179428101,
        0.99999892711639404
      ],
      "min": [
        -0.99996525049209595,
        -0.99988687038421631,
        -0.9997248649597168
      ],
      "type": "VEC3"
    },
    {
      "bufferView": 3,
      "byteOffset": 3145536,
      "componentType": 5126,
      "count": 21478,
      "max": [
        1,
        0.99991875886917114,
        0.9999929666519165,
        1
      ],
      "min": [
        -0.99985229969024658,
        -0.99985140562057495,
        -0.99995344877243042,
        1
      ],
      "type": "VEC4"
    },
    {
      "bufferView": 1,
      "byteOffset": 1572768,
      "componentType": 5126,
      "count": 21478,
      "max": [
        0.99827200174331665,
        0.99835300445556641
      ],
      "min": [
        0.0016629999736323953,
        0.0016499999910593033
      ],
      "type": "VEC2"
    },
    {
      "bufferView": 0,
      "byteOffset": 3065880,
      "componentType": 5125,
      "count": 54810,
      "max": [
        21477
      ],
      "min": [
        0
      ],
      "type": "SCALAR"
    }
  ],
  "asset": {
    "extras": {
      "author": "Maurice Svay (https://sketchfab.com/mauricesvay)",
      "license": "CC-BY-4.0 (http://creativecommons.org/licenses/by/4.0/)",
      "source": "https://sketchfab.com/3d-models/fontaine-wallace-5be06c9f4f904e71a4a85da53812b8e9",
      "title": "Fontaine Wallace"
    },
    "generator": "Sketchfab-6.9.0",
    "version": "2.0"
  },
  "bufferViews": [
    {
      "buffer": 0,
      "byteLength": 3285120,
      "byteOffset": 0,
      "name": "floatBufferViews",
      "target": 34963
    },
    {
      "buffer": 0,
      "byteLength": 1744592,
      "byteOffset": 3285120,
      "byteStride": 8,
      "name": "floatBufferViews",
      "target": 34962
    },
    {
      "buffer": 0,
      "byteLength": 5233776,
      "byteOffset": 5029712,
      "byteStride": 12,
      "name": "floatBufferViews",
      "target": 34962
    },
    {
      "buffer": 0,
      "byteLength": 3489184,
      "byteOffset": 10263488,
      "byteStride": 16,
      "name": "floatBufferViews",
      "target": 34962
    }
  ],
  "buffers": [
    {
      "byteLength": 13752672,
      "uri": "scene.bin"
    }
  ],
  "images": [
    {
      "uri": "textures/Material.001_baseColor.png"
    },
    {
      "uri": "textures/Material.001_emissive.jpeg"
    }
  ],
  "materials": [
    {
      "doubleSided": false,
      "emissiveFactor": [
        0.69999999999999996,
        0.69999999999999996,
        0.69999999999999996
      ],
      "emissiveTexture": {
        "index": 1,
        "texCoord": 0
      },
      "name": "Material.001",
      "pbrMetallicRoughness": {
        "baseColorFactor": [
          1,
          1,
          1,
          1
        ],
        "baseColorTexture": {
          "index": 0,
          "texCoord": 0
        },
        "metallicFactor": 0,
        "roughnessFactor": 0.59999999999999998
      }
    }
  ],
  "meshes": [
    {
      "primitives": [
        {
          "attributes": {
            "NORMAL": 1,
            "POSITION": 0,
            "TANGENT": 2,
            "TEXCOORD_0": 3
          },
          "indices": 4,
          "material": 0,
          "mode": 4
        }
      ]
    },
    {
      "primitives": [
        {
          "attributes": {
            "NORMAL": 6,
            "POSITION": 5,
            "TANGENT": 7,
            "TEXCOORD_0": 8
          },
          "indices": 9,
          "material": 0,
          "mode": 4
        }
      ]
    },
    {
      "primitives": [
        {
          "attributes": {
            "NORMAL": 11,
            "POSITION": 10,
            "TANGENT": 12,
            "TEXCOORD_0": 13
          },
          "indices": 14,
          "material": 0,
          "mode": 4
        }
      ]
    },
    {
      "primitives": [
        {
          "attributes": {
            "NORMAL": 16,
            "POSITION": 15,
            "TANGENT": 17,
            "TEXCOORD_0": 18
          },
          "indices": 19,
          "material": 0,
          "mode": 4
        }
      ]
    }
  ],
  "nodes": [
    {
      "children": [
        1
      ],
      "name": "RootNode (gltf orientation matrix)",
      "rotation": [
        -0.70710678118654746,
        -0,
        -0,
        0.70710678118654757
      ]
    },
    {
      "children": [
        2
      ],
      "name": "RootNode (model correction matrix)"
    },
    {
      "children": [
        3,
        4,
        5,
        6
      ],
      "name": "fontaine3.obj.cleaner.materialmerger.gles"
    },
    {
      "mesh": 0,
      "name": ""
    },
    {
      "mesh": 1,
      "name": ""
    },
    {
      "mesh": 2,
      "name": ""
    },
    {
      "mesh": 3,
      "name": ""
    }
  ],
  "samplers": [
    {
      "magFilter": 9729,
      "minFilter": 9987,
      "wrapS": 10497,
      "wrapT": 10497
    },
    {
      "magFilter": 9729,
      "minFilter": 9729,
      "wrapS": 10497,
      "wrapT": 10497
    }
  ],
  "scene": 0,
  "scenes": [
    {
      "name": "OSG_Scene",
      "nodes": [
        0
      ]
    }
  ],
  "textures": [
    {
      "sampler": 0,
      "source": 0
    },
    {
      "sampler": 1,
      "source": 1
    }
  ]
}

